<svg width="35" height="37" viewBox="0 0 35 37" fill="none" xmlns="http://www.w3.org/2000/svg">
<g filter="url(#filter0_d_29_61)">
<ellipse cx="17.5" cy="17.5032" rx="12.5" ry="12.8942" fill="url(#paint0_linear_29_61)"/>
</g>
<g clip-path="url(#clip0_29_61)">
<path d="M21.1562 15.7222H20.2412V13.5685C20.2412 12.041 19.0111 10.7982 17.4991 10.7982C15.987 10.7982 14.7569 12.041 14.7569 13.5685V15.7222H13.8438C13.0037 15.7222 12.3203 16.4272 12.3203 17.2937V22.6368C12.3203 23.5033 13.0037 24.2083 13.8438 24.2083H21.1562C21.9963 24.2083 22.6797 23.5033 22.6797 22.6368V17.2937C22.6797 16.4272 21.9963 15.7222 21.1562 15.7222ZM15.7725 13.5685C15.7725 12.6186 16.547 11.8459 17.4991 11.8459C18.4511 11.8459 19.2256 12.6186 19.2256 13.5685V15.7222H15.7725V13.5685ZM21.6641 22.6368C21.6641 22.9256 21.4363 23.1606 21.1562 23.1606H13.8438C13.5637 23.1606 13.3359 22.9256 13.3359 22.6368V17.2937C13.3359 17.0049 13.5637 16.7699 13.8438 16.7699H21.1562C21.4363 16.7699 21.6641 17.0049 21.6641 17.2937V22.6368Z" fill="white"/>
<path d="M17.5 18.289C16.9811 18.289 16.5605 18.7228 16.5605 19.2581C16.5605 19.5998 16.7322 19.9 16.9912 20.0726V21.2224C16.9912 21.5117 17.2186 21.7463 17.4991 21.7463C17.7795 21.7463 18.0069 21.5117 18.0069 21.2224V20.0738C18.267 19.9015 18.4395 19.6007 18.4395 19.2581C18.4395 18.7228 18.0189 18.289 17.5 18.289Z" fill="white"/>
</g>
<defs>
<filter id="filter0_d_29_61" x="0" y="0.608994" width="35" height="35.7885" filterUnits="userSpaceOnUse" color-interpolation-filters="sRGB">
<feFlood flood-opacity="0" result="BackgroundImageFix"/>
<feColorMatrix in="SourceAlpha" type="matrix" values="0 0 0 0 0 0 0 0 0 0 0 0 0 0 0 0 0 0 127 0" result="hardAlpha"/>
<feOffset dy="1"/>
<feGaussianBlur stdDeviation="2.5"/>
<feColorMatrix type="matrix" values="0 0 0 0 0 0 0 0 0 0 0 0 0 0 0 0 0 0 0.15 0"/>
<feBlend mode="normal" in2="BackgroundImageFix" result="effect1_dropShadow_29_61"/>
<feBlend mode="normal" in="SourceGraphic" in2="effect1_dropShadow_29_61" result="shape"/>
</filter>
<linearGradient id="paint0_linear_29_61" x1="8.25" y1="4.60899" x2="27.2462" y2="29.8356" gradientUnits="userSpaceOnUse">
<stop stop-color="#01AEEF"/>
<stop offset="1" stop-color="#0093E9"/>
</linearGradient>
<clipPath id="clip0_29_61">
<rect width="13" height="13.41" fill="white" transform="translate(11 10.7982)"/>
</clipPath>
</defs>
</svg>
