<svg width="59" height="60" viewBox="0 0 59 60" fill="none" xmlns="http://www.w3.org/2000/svg">
<path d="M47.7227 59.9961L29.4928 49.7438L11.2586 59.9885L14.7446 38.2831L-0.00270414 22.9072L20.3817 19.7446L29.5016 -0.00271735L38.6141 19.7487L58.9973 22.9199L44.2447 38.2891L47.7227 59.9961Z" fill="#FFCC00"/>
<path d="M38.6758 19.6229C29.444 33.0595 29.3438 33.2057 29.3438 33.2057L58.9352 22.8449L38.6758 19.6229Z" fill="#FFE680"/>
<path d="M29.4955 32.917V49.7877L11.0774 59.8944L29.4955 32.917Z" fill="#FFDD55"/>
<path d="M29.4955 32.917L47.6047 59.3803L44.2057 37.9488L29.4955 32.917Z" fill="#FFDD55"/>
<path d="M0.117065 22.8677L29.4971 32.9176L20.4195 19.6522L0.117065 22.8677Z" fill="#FFE680"/>
<path d="M29.4955 32.917V0.0408936L38.5572 19.6447L29.4955 32.917Z" fill="#FFDD55"/>
<path d="M11.2657 59.6219L14.6866 38.0095L29.498 32.917L11.2657 59.6219Z" fill="#FFD42A"/>
</svg>
