<svg width="35" height="37" viewBox="0 0 35 37" fill="none" xmlns="http://www.w3.org/2000/svg">
<g filter="url(#filter0_d_29_40)">
<ellipse cx="17.5" cy="17.29" rx="12.5" ry="12.8942" fill="url(#paint0_linear_29_40)"/>
</g>
<g clip-path="url(#clip0_29_40)">
<path d="M23.9675 22.0758C23.9104 21.7926 23.6415 21.6108 23.3669 21.6697C23.0923 21.7287 22.916 22.0061 22.9732 22.2893C23.0062 22.4525 22.9669 22.6197 22.8657 22.7482C22.807 22.8226 22.6762 22.9474 22.4594 22.9474H12.5415C12.3247 22.9474 12.1939 22.8225 12.1353 22.7482C12.034 22.6197 11.9948 22.4525 12.0277 22.2893C12.5547 19.6782 14.7875 17.7707 17.3659 17.7064C17.4105 17.7082 17.4554 17.7091 17.5005 17.7091C17.5457 17.7091 17.5908 17.7082 17.6356 17.7064C19.4518 17.7513 21.1306 18.7003 22.1472 20.2642C22.3034 20.5046 22.6188 20.5687 22.8518 20.4076C23.0847 20.2465 23.1469 19.9211 22.9907 19.6808C22.1575 18.3989 20.9476 17.4668 19.568 16.9984C20.4087 16.3481 20.9536 15.312 20.9536 14.1471C20.9536 12.183 19.4045 10.585 17.5005 10.585C15.5964 10.585 14.0474 12.183 14.0474 14.1471C14.0474 15.3127 14.5929 16.3493 15.4345 16.9996C14.6635 17.2614 13.94 17.6689 13.3067 18.2062C12.1455 19.1914 11.3382 20.5657 11.0334 22.0758C10.9379 22.549 11.0524 23.035 11.3473 23.4092C11.6409 23.7815 12.0762 23.995 12.5415 23.995H22.4594C22.9248 23.995 23.3601 23.7815 23.6536 23.4092C23.9486 23.035 24.063 22.549 23.9675 22.0758ZM15.063 14.1471C15.063 12.7606 16.1564 11.6327 17.5005 11.6327C18.8445 11.6327 19.938 12.7606 19.938 14.1471C19.938 15.4908 18.9108 16.5917 17.6239 16.6582C17.5828 16.6574 17.5417 16.6571 17.5005 16.6571C17.4595 16.6571 17.4185 16.6575 17.3776 16.6583C16.0904 16.592 15.063 15.491 15.063 14.1471Z" fill="white"/>
</g>
<defs>
<filter id="filter0_d_29_40" x="0" y="0.395775" width="35" height="35.7885" filterUnits="userSpaceOnUse" color-interpolation-filters="sRGB">
<feFlood flood-opacity="0" result="BackgroundImageFix"/>
<feColorMatrix in="SourceAlpha" type="matrix" values="0 0 0 0 0 0 0 0 0 0 0 0 0 0 0 0 0 0 127 0" result="hardAlpha"/>
<feOffset dy="1"/>
<feGaussianBlur stdDeviation="2.5"/>
<feColorMatrix type="matrix" values="0 0 0 0 0 0 0 0 0 0 0 0 0 0 0 0 0 0 0.15 0"/>
<feBlend mode="normal" in2="BackgroundImageFix" result="effect1_dropShadow_29_40"/>
<feBlend mode="normal" in="SourceGraphic" in2="effect1_dropShadow_29_40" result="shape"/>
</filter>
<linearGradient id="paint0_linear_29_40" x1="8.25" y1="4.39578" x2="27.2462" y2="29.6224" gradientUnits="userSpaceOnUse">
<stop stop-color="#01AEEF"/>
<stop offset="1" stop-color="#0093E9"/>
</linearGradient>
<clipPath id="clip0_29_40">
<rect width="13" height="13.41" fill="white" transform="translate(11 10.585)"/>
</clipPath>
</defs>
</svg>
